   <svg class="seat-handicapped" width="16" height="16" viewBox="0 0 16 16" fill="none" xmlns="http://www.w3.org/2000/svg"><path fill-rule="evenodd" clip-rule="evenodd" d="M7.42331 4.17023C8.24351 4.17023 8.90841 3.50533 8.90841 2.68513C8.90841 1.86494 8.24351 1.20004 7.42331 1.20004C6.60312 1.20004 5.93822 1.86494 5.93822 2.68513C5.93822 3.50533 6.60312 4.17023 7.42331 4.17023ZM5.29617 14.8035C6.58486 15.0606 7.90206 14.5198 8.63822 13.4313C8.76589 13.2489 8.78182 13.0107 8.67956 12.8129C8.57731 12.6151 8.37376 12.4904 8.15111 12.4891C7.96057 12.4847 7.78053 12.5762 7.67172 12.7327C7.17955 13.4909 6.25296 13.8429 5.38149 13.6028C4.51002 13.3628 3.89446 12.5858 3.86001 11.6826C3.82557 10.7793 4.38017 9.95776 5.23083 9.652C5.47404 9.56933 5.63859 9.34215 5.64131 9.08529C5.64036 8.88885 5.5436 8.70524 5.38208 8.59342C5.22057 8.4816 5.01465 8.45566 4.83045 8.52392C3.44852 9.0198 2.56709 10.3766 2.67568 11.8408C2.78427 13.305 3.85621 14.5169 5.29617 14.8035ZM6.53226 10.7046C6.53226 11.1967 6.9312 11.5957 7.42331 11.5957H10.0965C10.1989 11.5957 10.2941 11.6484 10.3483 11.7353L11.7146 13.85C11.8782 14.1094 12.1636 14.2665 12.4702 14.2659C12.795 14.2663 13.0943 14.0901 13.2514 13.8058C13.4085 13.5215 13.3985 13.1743 13.2253 12.8996L11.859 10.7848C11.4793 10.1777 10.8125 9.81021 10.0965 9.81357H8.61139C8.44735 9.81357 8.31437 9.68059 8.31437 9.51655V8.77401V6.69488V5.95233C8.31437 5.46022 7.91543 5.06128 7.42331 5.06128C6.9312 5.06128 6.53226 5.46022 6.53226 5.95233V10.7046Z" fill="#1EA83C"></path></svg>